<mxfile host="app.diagrams.net" modified="2024-06-24T02:14:19.100Z" agent="Mozilla/5.0 (Macintosh; Intel Mac OS X 10_15_7) AppleWebKit/537.36 (KHTML, like Gecko) Chrome/124.0.0.0 Safari/537.36" etag="JmbRq9P4B7LbExnSorLK" version="24.6.2" type="device">
  <diagram name="Page-1" id="5FEU78cZGeypKedz2tHz">
    <mxGraphModel dx="695" dy="473" grid="1" gridSize="10" guides="1" tooltips="1" connect="1" arrows="1" fold="1" page="1" pageScale="1" pageWidth="1600" pageHeight="1200" math="0" shadow="0">
      <root>
        <mxCell id="0" />
        <mxCell id="1" parent="0" />
        <mxCell id="IXlEwmfk64xkeE6Hf3jf-1" value="Custom Quizzer" style="rounded=0;whiteSpace=wrap;html=1;" vertex="1" parent="1">
          <mxGeometry x="420" y="130" width="120" height="60" as="geometry" />
        </mxCell>
        <mxCell id="IXlEwmfk64xkeE6Hf3jf-3" value="" style="endArrow=none;html=1;rounded=0;entryX=0.5;entryY=1;entryDx=0;entryDy=0;exitX=0.5;exitY=0;exitDx=0;exitDy=0;" edge="1" parent="1" source="IXlEwmfk64xkeE6Hf3jf-7" target="IXlEwmfk64xkeE6Hf3jf-1">
          <mxGeometry width="50" height="50" relative="1" as="geometry">
            <mxPoint x="360" y="300" as="sourcePoint" />
            <mxPoint x="410" y="250" as="targetPoint" />
          </mxGeometry>
        </mxCell>
        <mxCell id="IXlEwmfk64xkeE6Hf3jf-6" value="Display Score" style="rounded=0;whiteSpace=wrap;html=1;" vertex="1" parent="1">
          <mxGeometry x="680" y="300" width="120" height="60" as="geometry" />
        </mxCell>
        <mxCell id="IXlEwmfk64xkeE6Hf3jf-7" value="Select Quiz topic" style="rounded=0;whiteSpace=wrap;html=1;" vertex="1" parent="1">
          <mxGeometry x="360.67" y="300" width="120" height="60" as="geometry" />
        </mxCell>
        <mxCell id="IXlEwmfk64xkeE6Hf3jf-8" value="Quiz Data" style="rounded=0;whiteSpace=wrap;html=1;" vertex="1" parent="1">
          <mxGeometry x="140" y="300" width="120" height="60" as="geometry" />
        </mxCell>
        <mxCell id="IXlEwmfk64xkeE6Hf3jf-9" value="" style="endArrow=none;html=1;rounded=0;exitX=0.5;exitY=0;exitDx=0;exitDy=0;" edge="1" parent="1" source="IXlEwmfk64xkeE6Hf3jf-8">
          <mxGeometry width="50" height="50" relative="1" as="geometry">
            <mxPoint x="335" y="270" as="sourcePoint" />
            <mxPoint x="480" y="190" as="targetPoint" />
          </mxGeometry>
        </mxCell>
        <mxCell id="IXlEwmfk64xkeE6Hf3jf-13" value="&lt;font style=&quot;font-size: 10px;&quot;&gt;Input custom quiz data&lt;/font&gt;" style="text;html=1;align=center;verticalAlign=middle;whiteSpace=wrap;rounded=0;" vertex="1" parent="1">
          <mxGeometry x="286.82" y="180" width="80" height="30" as="geometry" />
        </mxCell>
        <mxCell id="IXlEwmfk64xkeE6Hf3jf-14" value="Check Selected options to answer" style="rounded=0;whiteSpace=wrap;html=1;" vertex="1" parent="1">
          <mxGeometry x="680" y="460" width="120" height="60" as="geometry" />
        </mxCell>
        <mxCell id="IXlEwmfk64xkeE6Hf3jf-15" value="" style="endArrow=none;html=1;rounded=0;exitX=0.5;exitY=0;exitDx=0;exitDy=0;entryX=0.5;entryY=1;entryDx=0;entryDy=0;" edge="1" parent="1" source="IXlEwmfk64xkeE6Hf3jf-14" target="IXlEwmfk64xkeE6Hf3jf-6">
          <mxGeometry width="50" height="50" relative="1" as="geometry">
            <mxPoint x="730" y="410" as="sourcePoint" />
            <mxPoint x="780" y="360" as="targetPoint" />
          </mxGeometry>
        </mxCell>
        <mxCell id="IXlEwmfk64xkeE6Hf3jf-16" value="" style="endArrow=none;html=1;rounded=0;entryX=0.5;entryY=1;entryDx=0;entryDy=0;exitX=0.5;exitY=0;exitDx=0;exitDy=0;" edge="1" parent="1" source="IXlEwmfk64xkeE6Hf3jf-6" target="IXlEwmfk64xkeE6Hf3jf-1">
          <mxGeometry width="50" height="50" relative="1" as="geometry">
            <mxPoint x="650" y="310" as="sourcePoint" />
            <mxPoint x="700" y="260" as="targetPoint" />
          </mxGeometry>
        </mxCell>
        <mxCell id="IXlEwmfk64xkeE6Hf3jf-25" value="&lt;font style=&quot;font-size: 10px;&quot;&gt;Custom Quiz data&lt;/font&gt;" style="text;html=1;align=center;verticalAlign=middle;whiteSpace=wrap;rounded=0;" vertex="1" parent="1">
          <mxGeometry x="286.82" y="284.78" width="60" height="30" as="geometry" />
        </mxCell>
        <mxCell id="IXlEwmfk64xkeE6Hf3jf-26" value="Questions 1-5" style="rounded=0;whiteSpace=wrap;html=1;" vertex="1" parent="1">
          <mxGeometry x="520" y="300" width="120" height="60" as="geometry" />
        </mxCell>
        <mxCell id="IXlEwmfk64xkeE6Hf3jf-27" value="" style="endArrow=none;html=1;rounded=0;exitX=0.5;exitY=0;exitDx=0;exitDy=0;" edge="1" parent="1" source="IXlEwmfk64xkeE6Hf3jf-26">
          <mxGeometry width="50" height="50" relative="1" as="geometry">
            <mxPoint x="490" y="277.33" as="sourcePoint" />
            <mxPoint x="480" y="190" as="targetPoint" />
          </mxGeometry>
        </mxCell>
        <mxCell id="IXlEwmfk64xkeE6Hf3jf-28" value="Check option is correct/incorrect" style="rounded=0;whiteSpace=wrap;html=1;" vertex="1" parent="1">
          <mxGeometry x="520" y="460" width="120" height="60" as="geometry" />
        </mxCell>
        <mxCell id="IXlEwmfk64xkeE6Hf3jf-29" value="" style="endArrow=none;html=1;rounded=0;entryX=0.5;entryY=1;entryDx=0;entryDy=0;exitX=0.5;exitY=0;exitDx=0;exitDy=0;" edge="1" parent="1" source="IXlEwmfk64xkeE6Hf3jf-28" target="IXlEwmfk64xkeE6Hf3jf-26">
          <mxGeometry width="50" height="50" relative="1" as="geometry">
            <mxPoint x="570" y="430" as="sourcePoint" />
            <mxPoint x="620" y="380" as="targetPoint" />
          </mxGeometry>
        </mxCell>
        <mxCell id="IXlEwmfk64xkeE6Hf3jf-33" value="" style="group" vertex="1" connectable="0" parent="1">
          <mxGeometry x="302.879827805219" y="253.32999999999998" width="43.93767219478099" height="31.452672194781087" as="geometry" />
        </mxCell>
        <mxCell id="IXlEwmfk64xkeE6Hf3jf-23" value="" style="ellipse;whiteSpace=wrap;html=1;aspect=fixed;rotation=-210;fillColor=none;" vertex="1" parent="IXlEwmfk64xkeE6Hf3jf-33">
          <mxGeometry x="3.0093388614476453" y="12" width="16.44333333333333" height="16.44333333333333" as="geometry" />
        </mxCell>
        <mxCell id="IXlEwmfk64xkeE6Hf3jf-24" value="" style="endArrow=classic;html=1;rounded=0;" edge="1" parent="IXlEwmfk64xkeE6Hf3jf-33">
          <mxGeometry width="50" height="50" relative="1" as="geometry">
            <mxPoint x="18.45050552811432" y="16" as="sourcePoint" />
            <mxPoint x="43.93767219478099" as="targetPoint" />
          </mxGeometry>
        </mxCell>
        <mxCell id="IXlEwmfk64xkeE6Hf3jf-34" value="" style="group;rotation=-180;" vertex="1" connectable="0" parent="1">
          <mxGeometry x="309.999827805219" y="210" width="43.93767219478099" height="31.452672194781087" as="geometry" />
        </mxCell>
        <mxCell id="IXlEwmfk64xkeE6Hf3jf-35" value="" style="ellipse;whiteSpace=wrap;html=1;aspect=fixed;rotation=-390;fillColor=none;" vertex="1" parent="IXlEwmfk64xkeE6Hf3jf-34">
          <mxGeometry x="25" y="3" width="16.44333333333333" height="16.44333333333333" as="geometry" />
        </mxCell>
        <mxCell id="IXlEwmfk64xkeE6Hf3jf-36" value="" style="endArrow=classic;html=1;rounded=0;" edge="1" parent="IXlEwmfk64xkeE6Hf3jf-34">
          <mxGeometry width="50" height="50" relative="1" as="geometry">
            <mxPoint x="25" y="15" as="sourcePoint" />
            <mxPoint y="31" as="targetPoint" />
          </mxGeometry>
        </mxCell>
        <mxCell id="IXlEwmfk64xkeE6Hf3jf-37" value="" style="group;rotation=120;" vertex="1" connectable="0" parent="1">
          <mxGeometry x="539.999827805219" y="390" width="43.93767219478099" height="31.452672194781087" as="geometry" />
        </mxCell>
        <mxCell id="IXlEwmfk64xkeE6Hf3jf-38" value="" style="ellipse;whiteSpace=wrap;html=1;aspect=fixed;rotation=-90;fillColor=none;" vertex="1" parent="IXlEwmfk64xkeE6Hf3jf-37">
          <mxGeometry x="15" y="-4" width="16.44333333333333" height="16.44333333333333" as="geometry" />
        </mxCell>
        <mxCell id="IXlEwmfk64xkeE6Hf3jf-39" value="" style="endArrow=classic;html=1;rounded=0;" edge="1" parent="IXlEwmfk64xkeE6Hf3jf-37">
          <mxGeometry width="50" height="50" relative="1" as="geometry">
            <mxPoint x="24" y="12" as="sourcePoint" />
            <mxPoint x="24" y="42" as="targetPoint" />
          </mxGeometry>
        </mxCell>
        <mxCell id="IXlEwmfk64xkeE6Hf3jf-40" value="&lt;font style=&quot;font-size: 10px;&quot;&gt;Selected option&lt;/font&gt;" style="text;html=1;align=center;verticalAlign=middle;whiteSpace=wrap;rounded=0;" vertex="1" parent="1">
          <mxGeometry x="500" y="380" width="60" height="30" as="geometry" />
        </mxCell>
        <mxCell id="IXlEwmfk64xkeE6Hf3jf-41" value="" style="group;rotation=-60;" vertex="1" connectable="0" parent="1">
          <mxGeometry x="579.999827805219" y="400" width="43.93767219478099" height="31.452672194781087" as="geometry" />
        </mxCell>
        <mxCell id="IXlEwmfk64xkeE6Hf3jf-42" value="" style="ellipse;whiteSpace=wrap;html=1;aspect=fixed;rotation=-270;fillColor=#000000;" vertex="1" parent="IXlEwmfk64xkeE6Hf3jf-41">
          <mxGeometry x="12" y="19" width="16.44333333333333" height="16.44333333333333" as="geometry" />
        </mxCell>
        <mxCell id="IXlEwmfk64xkeE6Hf3jf-43" value="" style="endArrow=classic;html=1;rounded=0;" edge="1" parent="IXlEwmfk64xkeE6Hf3jf-41">
          <mxGeometry width="50" height="50" relative="1" as="geometry">
            <mxPoint x="20" y="19" as="sourcePoint" />
            <mxPoint x="19" y="-11" as="targetPoint" />
          </mxGeometry>
        </mxCell>
        <mxCell id="IXlEwmfk64xkeE6Hf3jf-44" value="&lt;font style=&quot;font-size: 10px;&quot;&gt;correct/&lt;/font&gt;&lt;div&gt;&lt;font style=&quot;font-size: 10px;&quot;&gt;incorrect&lt;/font&gt;&lt;/div&gt;" style="text;html=1;align=center;verticalAlign=middle;whiteSpace=wrap;rounded=0;" vertex="1" parent="1">
          <mxGeometry x="610" y="400" width="60" height="30" as="geometry" />
        </mxCell>
        <mxCell id="IXlEwmfk64xkeE6Hf3jf-45" value="" style="group;rotation=-60;" vertex="1" connectable="0" parent="1">
          <mxGeometry x="739.999827805219" y="400" width="43.93767219478099" height="31.452672194781087" as="geometry" />
        </mxCell>
        <mxCell id="IXlEwmfk64xkeE6Hf3jf-46" value="" style="ellipse;whiteSpace=wrap;html=1;aspect=fixed;rotation=-270;fillColor=none;" vertex="1" parent="IXlEwmfk64xkeE6Hf3jf-45">
          <mxGeometry x="12" y="19" width="16.44333333333333" height="16.44333333333333" as="geometry" />
        </mxCell>
        <mxCell id="IXlEwmfk64xkeE6Hf3jf-47" value="" style="endArrow=classic;html=1;rounded=0;" edge="1" parent="IXlEwmfk64xkeE6Hf3jf-45">
          <mxGeometry width="50" height="50" relative="1" as="geometry">
            <mxPoint x="20" y="19" as="sourcePoint" />
            <mxPoint x="19" y="-11" as="targetPoint" />
          </mxGeometry>
        </mxCell>
        <mxCell id="IXlEwmfk64xkeE6Hf3jf-48" value="&lt;font style=&quot;font-size: 10px;&quot;&gt;Number of questions correct&lt;/font&gt;" style="text;html=1;align=center;verticalAlign=middle;whiteSpace=wrap;rounded=0;" vertex="1" parent="1">
          <mxGeometry x="770" y="400.73" width="60" height="30" as="geometry" />
        </mxCell>
      </root>
    </mxGraphModel>
  </diagram>
</mxfile>
